<svg data-v-fde0c5aa="" xmlns="http://www.w3.org/2000/svg" viewBox="0 0 300 300" class="font"><!----><defs data-v-fde0c5aa=""><!----></defs><rect data-v-fde0c5aa="" fill="transparent" x="0" y="0" width="300px" height="300px" class="logo-background-square"></rect><defs data-v-fde0c5aa=""><!----></defs><g data-v-fde0c5aa="" id="eee7ec39-3668-48fd-bcea-891fb33d8f1b" fill="#2f2707" transform="matrix(5.215780735015869,0,0,5.215780735015869,37.127245786256715,105.08520096314132)"><path d="M5.35 13.71L5.35 13.71Q3.99 13.71 2.90 13.08L2.90 13.08L2.90 13.08Q1.81 12.45 1.18 11.28L1.18 11.28L1.18 11.28Q0.55 10.12 0.55 8.60L0.55 8.60L0.55 8.60Q0.55 7.07 1.20 5.92L1.20 5.92L1.20 5.92Q1.85 4.77 3.00 4.14L3.00 4.14L3.00 4.14Q4.14 3.51 5.61 3.51L5.61 3.51L5.61 3.51Q6.36 3.51 7.08 3.67L7.08 3.67L7.08 3.67Q7.80 3.82 8.37 4.07L8.37 4.07L8.25 5.24L8.25 5.24Q6.89 4.72 5.66 4.72L5.66 4.72L5.66 4.72Q4.44 4.72 3.62 5.23L3.62 5.23L3.62 5.23Q2.80 5.74 2.40 6.61L2.40 6.61L2.40 6.61Q2.00 7.49 2.00 8.61L2.00 8.61L2.00 8.61Q2.00 10.37 2.95 11.44L2.95 11.44L2.95 11.44Q3.89 12.50 5.73 12.50L5.73 12.50L5.73 12.50Q6.12 12.50 6.57 12.44L6.57 12.44L6.57 12.44Q7.01 12.38 7.36 12.24L7.36 12.24L7.36 9.80L5.82 9.80L5.82 8.60L8.69 8.60L8.69 12.96L8.69 12.96Q8.08 13.30 7.22 13.50L7.22 13.50L7.22 13.50Q6.36 13.71 5.35 13.71L5.35 13.71ZM10.26 5.11L10.26 3.71L11.52 3.71L11.52 5.11L10.26 5.11ZM10.26 13.51L10.26 6.65L11.52 6.65L11.52 13.51L10.26 13.51ZM15.60 13.65L15.60 13.65Q14.69 13.65 14.24 13.17L14.24 13.17L14.24 13.17Q13.80 12.70 13.80 12.01L13.80 12.01L13.80 7.63L12.63 7.63L12.74 6.65L13.80 6.65L13.80 4.96L15.06 4.83L15.06 6.65L16.87 6.65L16.87 7.63L15.06 7.63L15.06 11.24L15.06 11.24Q15.06 11.96 15.15 12.22L15.15 12.22L15.15 12.22Q15.23 12.49 15.50 12.56L15.50 12.56L15.50 12.56Q15.78 12.64 16.51 12.64L16.51 12.64L16.83 12.64L16.73 13.65L15.60 13.65ZM22.58 13.71L22.58 13.71Q21.15 13.71 20.03 13.08L20.03 13.08L20.03 13.08Q18.91 12.45 18.28 11.29L18.28 11.29L18.28 11.29Q17.64 10.14 17.64 8.61L17.64 8.61L17.64 8.61Q17.64 7.08 18.28 5.93L18.28 5.93L18.28 5.93Q18.93 4.77 20.06 4.14L20.06 4.14L20.06 4.14Q21.20 3.51 22.64 3.51L22.64 3.51L22.64 3.51Q23.35 3.51 24.04 3.67L24.04 3.67L24.04 3.67Q24.72 3.82 25.26 4.09L25.26 4.09L25.12 5.32L25.12 5.32Q23.86 4.72 22.62 4.72L22.62 4.72L22.62 4.72Q21.50 4.72 20.71 5.23L20.71 5.23L20.71 5.23Q19.91 5.74 19.50 6.62L19.50 6.62L19.50 6.62Q19.10 7.50 19.10 8.61L19.10 8.61L19.10 8.61Q19.10 9.72 19.50 10.60L19.50 10.60L19.50 10.60Q19.91 11.48 20.69 11.99L20.69 11.99L20.69 11.99Q21.48 12.50 22.60 12.50L22.60 12.50L22.60 12.50Q23.91 12.50 25.12 11.91L25.12 11.91L25.26 13.15L25.26 13.15Q24.04 13.71 22.58 13.71L22.58 13.71ZM28.17 13.65L28.17 13.65Q27.22 13.65 26.64 13.09L26.64 13.09L26.64 13.09Q26.05 12.53 26.05 11.66L26.05 11.66L26.05 11.66Q26.05 10.36 27.29 9.80L27.29 9.80L27.29 9.80Q28.52 9.24 30.16 9.21L30.16 9.21L30.16 9.21Q30.16 8.29 29.80 7.96L29.80 7.96L29.80 7.96Q29.44 7.63 28.66 7.63L28.66 7.63L28.66 7.63Q28.22 7.63 27.79 7.76L27.79 7.76L27.79 7.76Q27.36 7.90 26.85 8.25L26.85 8.25L26.67 7.22L26.67 7.22Q27.09 6.90 27.71 6.71L27.71 6.71L27.71 6.71Q28.32 6.51 28.99 6.51L28.99 6.51L28.99 6.51Q29.88 6.51 30.40 6.82L30.40 6.82L30.40 6.82Q30.93 7.13 31.17 7.84L31.17 7.84L31.17 7.84Q31.42 8.55 31.42 9.80L31.42 9.80L31.42 11.20L31.42 11.20Q31.42 11.76 31.47 12.05L31.47 12.05L31.47 12.05Q31.51 12.33 31.68 12.49L31.68 12.49L31.68 12.49Q31.85 12.64 32.20 12.64L32.20 12.64L32.33 12.64L32.13 13.65L32.03 13.65L32.03 13.65Q31.44 13.65 31.11 13.54L31.11 13.54L31.11 13.54Q30.77 13.43 30.60 13.22L30.60 13.22L30.60 13.22Q30.42 13.01 30.27 12.64L30.27 12.64L30.27 12.64Q29.40 13.65 28.17 13.65L28.17 13.65ZM28.41 12.64L28.41 12.64Q28.91 12.64 29.38 12.39L29.38 12.39L29.38 12.39Q29.85 12.14 30.16 11.72L30.16 11.72L30.16 10.08L30.16 10.08Q28.64 10.14 27.99 10.48L27.99 10.48L27.99 10.48Q27.34 10.82 27.34 11.59L27.34 11.59L27.34 11.59Q27.34 12.12 27.63 12.38L27.63 12.38L27.63 12.38Q27.92 12.64 28.41 12.64L28.41 12.64ZM35.24 13.65L35.24 13.65Q34.43 13.65 33.82 13.46L33.82 13.46L33.82 13.46Q33.21 13.27 32.89 13.05L32.89 13.05L33.04 11.83L33.04 11.83Q33.32 12.08 33.90 12.31L33.90 12.31L33.90 12.31Q34.48 12.53 35.18 12.53L35.18 12.53L35.18 12.53Q35.84 12.53 36.20 12.31L36.20 12.31L36.20 12.31Q36.55 12.08 36.55 11.68L36.55 11.68L36.55 11.68Q36.55 11.20 36.16 10.96L36.16 10.96L36.16 10.96Q35.77 10.71 35.18 10.54L35.18 10.54L35.18 10.54Q34.54 10.37 34.10 10.18L34.10 10.18L34.10 10.18Q33.66 10.00 33.34 9.60L33.34 9.60L33.34 9.60Q33.03 9.21 33.03 8.57L33.03 8.57L33.03 8.57Q33.03 7.69 33.66 7.10L33.66 7.10L33.66 7.10Q34.29 6.51 35.60 6.51L35.60 6.51L35.60 6.51Q36.20 6.51 36.62 6.63L36.62 6.63L36.62 6.63Q37.04 6.75 37.46 6.96L37.46 6.96L37.31 8.11L37.31 8.11Q36.97 7.83 36.57 7.67L36.57 7.67L36.57 7.67Q36.16 7.50 35.63 7.50L35.63 7.50L35.63 7.50Q35.01 7.50 34.66 7.73L34.66 7.73L34.66 7.73Q34.30 7.97 34.30 8.43L34.30 8.43L34.30 8.43Q34.30 8.74 34.47 8.93L34.47 8.93L34.47 8.93Q34.64 9.11 34.94 9.24L34.94 9.24L34.94 9.24Q35.25 9.37 35.90 9.56L35.90 9.56L35.90 9.56Q36.69 9.80 37.28 10.23L37.28 10.23L37.28 10.23Q37.86 10.67 37.86 11.61L37.86 11.61L37.86 11.61Q37.86 12.45 37.26 13.05L37.26 13.05L37.26 13.05Q36.67 13.65 35.24 13.65L35.24 13.65ZM41.45 13.65L41.45 13.65Q40.54 13.65 40.10 13.17L40.10 13.17L40.10 13.17Q39.66 12.70 39.66 12.01L39.66 12.01L39.66 7.63L38.49 7.63L38.60 6.65L39.66 6.65L39.66 4.96L40.92 4.83L40.92 6.65L42.73 6.65L42.73 7.63L40.92 7.63L40.92 11.24L40.92 11.24Q40.92 11.96 41.01 12.22L41.01 12.22L41.01 12.22Q41.09 12.49 41.36 12.56L41.36 12.56L41.36 12.56Q41.64 12.64 42.36 12.64L42.36 12.64L42.69 12.64L42.59 13.65L41.45 13.65Z"></path></g><!----><!----></svg>