<svg data-v-fde0c5aa="" xmlns="http://www.w3.org/2000/svg" viewBox="0 0 300 300" class="font"><!----><defs data-v-fde0c5aa=""><!----></defs><rect data-v-fde0c5aa="" fill="#FFFFFF" x="0" y="0" width="300px" height="300px" class="logo-background-square"></rect><defs data-v-fde0c5aa=""><!----></defs><g data-v-fde0c5aa="" id="de3fb6d2-8a98-41fe-ae6d-5eb343fdd39f" fill="#61C611" transform="matrix(4.241283416748047,0,0,4.241283416748047,38.17757361247083,97.03366217335645)"><path d="M3.56 11.50L3.56 11.50L3.56 11.50Q2.76 11.50 2.08 12.20L2.08 12.20L2.08 15.65L2.08 15.65Q2.09 15.65 2.18 15.77L2.18 15.77L2.18 15.77Q2.27 15.89 2.37 16.00L2.37 16.00L2.37 16.00Q2.47 16.10 2.63 16.21L2.63 16.21L2.63 16.21Q2.97 16.48 3.43 16.48L3.43 16.48L3.43 16.48Q3.88 16.48 4.17 16.35L4.17 16.35L4.17 16.35Q4.46 16.23 4.63 16.02L4.63 16.02L4.63 16.02Q4.80 15.82 4.90 15.50L4.90 15.50L4.90 15.50Q5.08 14.96 5.08 14.21L5.08 14.21L5.08 14.21Q5.08 13.45 4.99 12.97L4.99 12.97L4.99 12.97Q4.90 12.49 4.76 12.21L4.76 12.21L4.76 12.21Q4.62 11.94 4.41 11.77L4.41 11.77L4.41 11.77Q4.07 11.50 3.56 11.50ZM2.08 17.06L2.08 17.06L2.08 17.06Q2.03 17.60 1.98 17.60L1.98 17.60L0.43 17.60L0.43 17.60Q0.62 17.16 0.62 16.62L0.62 16.62L0.62 7.24L2.08 7.24L2.08 10.86L2.08 10.86Q2.21 10.68 2.60 10.47L2.60 10.47L2.60 10.47Q2.99 10.26 3.52 10.26L3.52 10.26L3.52 10.26Q4.05 10.26 4.50 10.38L4.50 10.38L4.50 10.38Q4.94 10.50 5.25 10.70L5.25 10.70L5.25 10.70Q5.56 10.90 5.80 11.19L5.80 11.19L5.80 11.19Q6.04 11.49 6.17 11.81L6.17 11.81L6.17 11.81Q6.31 12.13 6.40 12.54L6.40 12.54L6.40 12.54Q6.54 13.23 6.54 13.94L6.54 13.94L6.54 13.94Q6.54 14.65 6.44 15.15L6.44 15.15L6.44 15.15Q6.34 15.65 6.11 16.12L6.11 16.12L6.11 16.12Q5.88 16.59 5.54 16.95L5.54 16.95L5.54 16.95Q4.81 17.72 3.60 17.72L3.60 17.72L3.60 17.72Q2.60 17.72 2.08 17.06ZM8.80 15.74L8.80 15.74L8.80 15.74Q8.80 16.14 9.00 16.32L9.00 16.32L9.00 16.32Q9.20 16.50 9.50 16.50L9.50 16.50L9.50 16.50Q9.79 16.50 9.94 16.47L9.94 16.47L9.94 16.47Q10.08 16.43 10.23 16.37L10.23 16.37L10.48 16.24L10.48 16.24Q10.59 16.17 10.73 16.06L10.73 16.06L10.92 15.91L10.92 15.91Q10.98 15.86 11.10 15.75L11.10 15.75L11.22 15.63L11.22 13.95L11.22 13.95Q9.69 14.30 9.22 14.71L9.22 14.71L9.22 14.71Q8.80 15.08 8.80 15.74ZM12.89 17.60L11.43 17.60L11.43 17.60Q11.22 17.47 11.22 16.96L11.22 16.96L11.09 17.11L11.09 17.11Q10.51 17.74 9.41 17.74L9.41 17.74L9.41 17.74Q8.09 17.74 7.59 16.80L7.59 16.80L7.59 16.80Q7.34 16.34 7.34 15.73L7.34 15.73L7.34 15.73Q7.34 15.12 7.56 14.65L7.56 14.65L7.56 14.65Q7.77 14.17 8.26 13.81L8.26 13.81L8.26 13.81Q9.14 13.15 11.22 12.74L11.22 12.74L11.22 12.74Q11.22 12.25 11.19 12.14L11.19 12.14L11.19 12.14Q11.16 12.03 11.13 11.94L11.13 11.94L11.13 11.94Q11.09 11.84 11.03 11.79L11.03 11.79L11.03 11.79Q10.98 11.74 10.90 11.68L10.90 11.68L10.90 11.68Q10.81 11.61 10.71 11.59L10.71 11.59L10.71 11.59Q10.44 11.52 10.11 11.52L10.11 11.52L10.11 11.52Q9.79 11.52 9.51 11.62L9.51 11.62L9.51 11.62Q9.22 11.72 9.05 11.84L9.05 11.84L9.05 11.84Q8.89 11.96 8.75 12.13L8.75 12.13L8.75 12.13Q8.57 12.35 8.50 12.51L8.50 12.51L7.54 11.92L7.54 11.92Q7.84 11.30 8.06 11.09L8.06 11.09L8.06 11.09Q8.28 10.88 8.49 10.73L8.49 10.73L8.49 10.73Q8.70 10.58 8.94 10.49L8.94 10.49L8.94 10.49Q9.52 10.28 10.11 10.28L10.11 10.28L10.11 10.28Q10.71 10.28 11.06 10.35L11.06 10.35L11.06 10.35Q11.41 10.41 11.73 10.58L11.73 10.58L11.73 10.58Q12.04 10.75 12.25 11.03L12.25 11.03L12.25 11.03Q12.69 11.63 12.69 12.80L12.69 12.80L12.69 16.58L12.69 16.58Q12.69 16.77 12.76 17.12L12.76 17.12L12.76 17.12Q12.83 17.47 12.89 17.60L12.89 17.60ZM13.74 16.15L13.74 16.15L14.75 15.53L14.75 15.53Q14.99 15.87 15.20 16.08L15.20 16.08L15.20 16.08Q15.68 16.56 16.42 16.56L16.42 16.56L16.42 16.56Q17.01 16.56 17.27 16.31L17.27 16.31L17.27 16.31Q17.50 16.08 17.50 15.63L17.50 15.63L17.50 15.63Q17.50 15.11 17.17 14.85L17.17 14.85L17.17 14.85Q16.86 14.62 16.57 14.54L16.57 14.54L15.93 14.36L15.93 14.36Q14.81 14.04 14.32 13.51L14.32 13.51L14.32 13.51Q13.82 12.97 13.82 12.08L13.82 12.08L13.82 12.08Q13.82 11.32 14.44 10.81L14.44 10.81L14.44 10.81Q15.10 10.26 16.32 10.26L16.32 10.26L16.32 10.26Q17.42 10.26 18.22 11.01L18.22 11.01L18.22 11.01Q18.56 11.33 18.65 11.55L18.65 11.55L17.80 12.22L17.80 12.22Q17.32 11.64 16.84 11.50L16.84 11.50L16.84 11.50Q16.60 11.43 16.20 11.43L16.20 11.43L16.20 11.43Q15.80 11.43 15.51 11.63L15.51 11.63L15.51 11.63Q15.23 11.84 15.23 12.24L15.23 12.24L15.23 12.24Q15.23 12.69 15.63 12.95L15.63 12.95L15.63 12.95Q15.99 13.17 16.35 13.28L16.35 13.28L16.97 13.45L16.97 13.45Q18.42 13.86 18.76 14.84L18.76 14.84L18.76 14.84Q18.91 15.24 18.91 15.78L18.91 15.78L18.91 15.78Q18.91 16.32 18.57 16.78L18.57 16.78L18.57 16.78Q18.23 17.23 17.68 17.47L17.68 17.47L17.68 17.47Q17.12 17.72 16.56 17.72L16.56 17.72L16.56 17.72Q16.00 17.72 15.63 17.65L15.63 17.65L15.63 17.65Q15.26 17.58 14.92 17.41L14.92 17.41L14.92 17.41Q14.26 17.08 13.74 16.15ZM25.53 12.19L25.53 12.19L25.53 17.60L24.06 17.60L24.06 12.57L24.06 12.57Q24.06 12.08 23.77 11.79L23.77 11.79L23.77 11.79Q23.47 11.50 23.06 11.50L23.06 11.50L23.06 11.50Q22.65 11.50 22.24 11.74L22.24 11.74L22.24 11.74Q21.84 11.98 21.64 12.22L21.64 12.22L21.64 17.60L20.18 17.60L20.18 7.24L21.64 7.24L21.64 11.15L21.64 11.15Q22.53 10.26 23.49 10.26L23.49 10.26L23.49 10.26Q24.35 10.26 24.92 10.71L24.92 10.71L24.92 10.71Q25.53 11.20 25.53 12.19ZM28.66 17.60L27.02 17.60L27.02 7.24L32.95 7.24L32.95 8.61L28.66 8.61L28.66 11.48L31.64 11.48L31.64 12.86L28.66 12.86L28.66 17.60ZM33.56 15.79L33.56 15.79L33.56 10.38L35.03 10.38L35.03 15.41L35.03 15.41Q35.03 15.90 35.32 16.19L35.32 16.19L35.32 16.19Q35.62 16.48 36.03 16.48L36.03 16.48L36.03 16.48Q36.44 16.48 36.84 16.24L36.84 16.24L36.84 16.24Q37.25 16.00 37.45 15.76L37.45 15.76L37.45 10.38L38.91 10.38L38.91 17.60L37.45 17.60L37.45 16.83L37.45 16.83Q36.56 17.72 35.60 17.72L35.60 17.72L35.60 17.72Q34.74 17.72 34.17 17.27L34.17 17.27L34.17 17.27Q33.56 16.78 33.56 15.79ZM45.68 12.19L45.68 12.19L45.68 17.60L44.21 17.60L44.21 12.57L44.21 12.57Q44.21 12.08 43.92 11.79L43.92 11.79L43.92 11.79Q43.62 11.50 43.21 11.50L43.21 11.50L43.21 11.50Q42.80 11.50 42.40 11.74L42.40 11.74L42.40 11.74Q41.99 11.98 41.79 12.22L41.79 12.22L41.79 17.60L40.33 17.60L40.33 10.38L41.79 10.38L41.79 11.15L41.79 11.15Q42.19 10.75 42.63 10.51L42.63 10.51L42.63 10.51Q43.06 10.26 43.64 10.26L43.64 10.26L43.64 10.26Q44.53 10.26 45.10 10.74L45.10 10.74L45.10 10.74Q45.68 11.22 45.68 12.19ZM46.74 14.04L46.74 14.04L46.74 14.04Q46.74 11.89 47.67 10.99L47.67 10.99L47.67 10.99Q48.41 10.26 49.74 10.26L49.74 10.26L49.74 10.26Q51.07 10.26 51.82 11.38L51.82 11.38L51.82 11.38Q52.07 11.74 52.17 12.06L52.17 12.06L50.93 12.61L50.93 12.61Q50.87 12.04 50.47 11.72L50.47 11.72L50.47 11.72Q50.20 11.50 49.79 11.50L49.79 11.50L49.79 11.50Q48.20 11.50 48.20 13.98L48.20 13.98L48.20 13.98Q48.20 15.20 48.62 15.84L48.62 15.84L48.62 15.84Q49.03 16.48 49.83 16.48L49.83 16.48L49.83 16.48Q50.39 16.48 50.74 16.07L50.74 16.07L50.74 16.07Q51.04 15.72 51.18 15.31L51.18 15.31L52.30 15.80L52.30 15.80Q52.14 16.41 51.63 16.96L51.63 16.96L51.63 16.96Q50.91 17.72 49.79 17.72L49.79 17.72L49.79 17.72Q46.74 17.72 46.74 14.04Z"></path></g><!----><!----></svg>